<svg width="17" height="17" viewBox="0 0 17 17" fill="none" xmlns="http://www.w3.org/2000/svg">
<path d="M7.4248 0.540039C7.87197 0.540259 8.23438 0.902396 8.23438 1.34961V6.0752C8.23431 6.64798 8.00658 7.19749 7.60156 7.60254C7.19652 8.00742 6.64694 8.23535 6.07422 8.23535H5.53418V14.8506C5.53417 15.2979 5.17186 15.661 4.72461 15.6611C4.27742 15.661 3.91407 15.2978 3.91406 14.8506V8.23535H3.37402C2.18452 8.23496 1.21498 7.26469 1.21484 6.0752V1.34961C1.21484 0.902369 1.57721 0.540215 2.02441 0.540039C2.47176 0.540039 2.83398 0.90226 2.83398 1.34961V6.0752C2.83412 6.37012 3.07933 6.61484 3.37402 6.61523H3.91406V1.34961C3.91406 0.902369 4.27741 0.540215 4.72461 0.540039C5.17187 0.540149 5.53418 0.902328 5.53418 1.34961V6.61523H6.07422C6.21727 6.61523 6.35481 6.55812 6.45605 6.45703C6.55727 6.3558 6.61419 6.21837 6.61426 6.0752V1.34961C6.61426 0.902369 6.9776 0.540215 7.4248 0.540039ZM14.9844 14.8506C14.9844 15.2978 14.622 15.6609 14.1748 15.6611C13.7276 15.661 13.3643 15.2978 13.3643 14.8506V10.9355H12.1494C10.9597 10.9354 9.98938 9.96502 9.98926 8.77539V4.72461C9.98933 3.61491 10.4303 2.55042 11.2148 1.76562C11.9996 0.980807 13.065 0.540125 14.1748 0.540039H14.9844V14.8506ZM13.3643 2.29297C12.9899 2.41775 12.6446 2.62686 12.3604 2.91113C11.8796 3.3921 11.6094 4.04454 11.6094 4.72461V8.77539C11.6095 9.07045 11.8545 9.31525 12.1494 9.31543H13.3643V2.29297Z" fill="#FF8569"/>
</svg>
