<svg width="20" height="14" viewBox="0 0 20 14" fill="none" xmlns="http://www.w3.org/2000/svg">
<path d="M19.7881 0.0117188V2.75977H16.96V11.0879C16.96 11.8546 16.6854 12.5062 16.1377 13.043C15.5901 13.5796 14.9251 13.8477 14.1426 13.8477C13.3602 13.8476 12.695 13.5796 12.1475 13.043C11.6 12.5063 11.3262 11.8545 11.3262 11.0879C11.3262 10.3213 11.5998 9.66948 12.1475 9.13281C12.695 8.59618 13.3602 8.32823 14.1426 8.32812C14.3149 8.32812 14.4802 8.3393 14.6367 8.3623C14.7923 8.38522 14.94 8.43545 15.0801 8.51172L15.0977 8.52148V0.0117188H19.7881ZM3.29004 1.85547L4.61035 3.70312L4.60352 3.70801H8.58008V3.7168L8.58984 3.70312L9.91016 1.85547L9.92383 1.83594H3.27637L3.29004 1.85547ZM5.66699 8.30957L0.0224609 0.0117188H13.1777L7.5332 8.30859L7.53125 8.30762V12.0244H9.41699V13.8477H3.7832V12.0244H5.66895V8.31641H5.67188L5.66699 8.30957Z" fill="#E6D9B8" stroke="#E6D9B8" stroke-width="0.0243002"/>
</svg>
